{
    "asset" : {
        "generator" : "Khronos glTF Blender I/O v1.8.19",
        "version" : "2.0"
    },
    "scene" : 0,
    "scenes" : [
        {
            "name" : "Scene",
            "nodes" : [
                0
            ]
        }
    ],
    "nodes" : [
        {
            "mesh" : 0,
            "name" : "hall-navmesh"
        }
    ],
    "meshes" : [
        {
            "name" : "Plane",
            "primitives" : [
                {
                    "attributes" : {
                        "POSITION" : 0,
                        "NORMAL" : 1,
                        "TEXCOORD_0" : 2
                    },
                    "indices" : 3
                }
            ]
        }
    ],
    "accessors" : [
        {
            "bufferView" : 0,
            "componentType" : 5126,
            "count" : 73,
            "max" : [
                35.113502502441406,
                -2.384185791015625e-07,
                46.86054992675781
            ],
            "min" : [
                -30.465728759765625,
                -2.384185791015625e-07,
                -35.20579147338867
            ],
            "type" : "VEC3"
        },
        {
            "bufferView" : 1,
            "componentType" : 5126,
            "count" : 73,
            "type" : "VEC3"
        },
        {
            "bufferView" : 2,
            "componentType" : 5126,
            "count" : 73,
            "type" : "VEC2"
        },
        {
            "bufferView" : 3,
            "componentType" : 5123,
            "count" : 141,
            "type" : "SCALAR"
        }
    ],
    "bufferViews" : [
        {
            "buffer" : 0,
            "byteLength" : 876,
            "byteOffset" : 0
        },
        {
            "buffer" : 0,
            "byteLength" : 876,
            "byteOffset" : 876
        },
        {
            "buffer" : 0,
            "byteLength" : 584,
            "byteOffset" : 1752
        },
        {
            "buffer" : 0,
            "byteLength" : 282,
            "byteOffset" : 2336
        }
    ],
    "buffers" : [
        {
            "byteLength" : 2620,
            "uri" : "data:application/octet-stream;base64,"
        }
    ]
}
